<svg xmlns="http://www.w3.org/2000/svg" width="41.193" height="35.879" viewBox="0 0 41.193 35.879">
  <g id="Group_2" data-name="Group 2" transform="translate(-461.563 -458.617)">
    <path id="Path_106" data-name="Path 106" d="M464.879,535.171c3.157,4.431,7.526,5.549,12.233,5.789,7.835.4,15.195-1.176,21.81-5.58a23.124,23.124,0,0,0,1.95-1.593,5.853,5.853,0,0,1,1.886-1.2c-1.022,3.756-1.8,7.569-4.74,10.36-8.034,7.618-17.607,10.384-28.466,8.772a14.029,14.029,0,0,1-4.7-1.7c-3.039-1.715-3.958-4.332-2.811-7.6C462.867,540.052,463.86,537.75,464.879,535.171Z" transform="translate(0 -57.661)" fill="#f17625"/>
    <path id="Path_107" data-name="Path 107" d="M495.117,458.617c2.469,4.014,6.492,4.367,9.991,5.717,2.177.84,5.322,1.151,6.214,2.729.734,1.3-1.189,4.118-1.977,6.247-.417,1.128-.926,2.221-1.541,3.679-4.349-1.867-8.63-3.46-12.671-5.522-2.928-1.494-3.489-3.9-2.32-7.037C493.475,462.65,494.21,460.9,495.117,458.617Z" transform="translate(-23.916 0)" fill="#f17625"/>
  </g>
</svg>
