<svg xmlns="http://www.w3.org/2000/svg" width="57.267" height="49.879" viewBox="0 0 57.267 49.879">
  <g id="Group_1" data-name="Group 1" transform="translate(-461.563 -458.617)">
    <path id="Path_106" data-name="Path 106" d="M466.172,536.181c4.389,6.16,10.463,7.714,17.006,8.049,10.892.557,21.124-1.634,30.32-7.757a32.158,32.158,0,0,0,2.711-2.215,8.136,8.136,0,0,1,2.621-1.675c-1.421,5.221-2.5,10.523-6.589,14.4-11.169,10.591-24.477,14.436-39.574,12.2a19.5,19.5,0,0,1-6.533-2.367c-4.225-2.384-5.5-6.023-3.908-10.567C463.376,542.966,464.756,539.767,466.172,536.181Z" transform="translate(0 -51.299)" fill="#f17625"/>
    <path id="Path_107" data-name="Path 107" d="M496.239,458.617c3.433,5.581,9.025,6.071,13.89,7.948,3.027,1.168,7.4,1.6,8.638,3.793,1.02,1.8-1.653,5.725-2.749,8.685-.58,1.568-1.288,3.088-2.143,5.115-6.047-2.6-12-4.81-17.616-7.677-4.07-2.077-4.851-5.423-3.226-9.782C493.956,464.224,494.977,461.787,496.239,458.617Z" transform="translate(-21.277 0)" fill="#f17625"/>
  </g>
</svg>
